PathFileType	4	(X/Y/Z)	C:/Users/beibeiliu/ov580/test_trc\sequence.4_training_dense_right.trc
DataRate	CameraRate	NumFrames	NumMarkers	Units	OrigDataRate	OrigDataStartFrame	OrigNumFrames
120	120	12	19	mm	120	1	71
Frame#	Time	ThumbCMC			ThumbMCP			ThumbIP			ThumbTip			IndexMCP			IndexPIP			IndexTip			MiddleMCP			MiddlePIP			MiddleTip			RingMCP			RingPIP			RingTip			PinkyMCP			PinkyPIP			PinkyTip			BackHand1			BackHand2			BackHand3	
		X0	Y0	Z0	X1	Y1	Z1	X2	Y2	Z2	X3	Y3	Z3	X4	Y4	Z4	X5	Y5	Z5	X6	Y6	Z6	X7	Y7	Z7	X8	Y8	Z8	X9	Y9	Z9	X10	Y10	Z10	X11	Y11	Z11	X12	Y12	Z12	X13	Y13	Z13	X14	Y14	Z14	X15	Y15	Z15	X16	Y16	Z16	X17	Y17	Z17	X18	Y18	Z18	
0	0	98.6087	-12.8398	102.49	80.8097	-29.7103	84.4359	69.1148	-37.9587	60.943	59.9779	-44.3771	42.4604	110.636	-30.4505	30.341	122.657	-58.3262	41.4291	120.028	-48.9587	70.7367	133.494	-27.4086	29.1374	138.432	-56.0084	44.4141	133.699	-39.0214	78.1457	149.389	-26.8963	35.5773	151.799	-48.8364	57.1426	142.235	-27.3821	83.1827	162.859	-20.9697	43.6115	162.33	-40.876	65.8794	151.298	-21.3127	88.4772	140.941	19.6648	66.5567	138.426	27.9041	99.2494	110.367	14.0766	86.6123	
1	0.00833333	80.1344	-12.5769	103.235	65.9527	-26.3195	91.9588	48.6366	-33.2862	67.6798	33.9005	-39.7515	55.0866	86.9712	-36.8907	38.9127	92.0597	-65.5266	52.972	96.9513	-43.458	78.8451	106.215	-37.4485	37.1674	108.853	-64.1313	59.1747	108.402	-39.4958	85.957	123.041	-42.2732	42.6213	129.368	-58.7231	65.7013	119.479	-31.7171	88.2145	140.121	-35.3464	49.8068	136.421	-51.4137	75.3495	127.06	-24.9903	90.3127	128.306	8.71027	68.1998	129.805	18.9577	99.8486	97.3708	11.5517	86.4354	
2	0.0166667	69.1607	1.9546	109.038	50.9643	-9.20828	91.3026	30.8829	-11.4329	71.1758	18.1548	-14.4374	55.5973	66.3597	-31.558	42.9831	59.7498	-57.1034	58.1293	73.97	-37.8116	83.5941	82.2334	-43.1946	42.1128	76.7071	-60.6552	67.1941	85.865	-32.3225	90.323	100.957	-47.9246	48.5283	94.5513	-60.0767	73.1181	99.5312	-31.0255	91.9879	114.977	-47.726	54.4743	108.782	-55.9675	81.2283	108.652	-29.1494	95.3555	121.822	0.0717935	66.0625	129.441	12.1623	94.4965	95.9294	16.2116	85.7862	
3	0.025	66.0115	25.6263	101.953	44.6435	23.6581	90.2587	26.9619	23.9878	65.1967	11.2697	26.2997	51.3677	49.8805	-8.96539	42.7782	35.3243	-30.3911	63.7399	56.2801	-16.218	84.8216	64.8215	-29.8493	43.3633	51.3406	-41.9389	71.6875	68.8173	-18.4724	91.4346	73.1488	-39.6493	50.8867	65.1896	-44.6566	81.1223	79.9515	-18.2314	93.5178	89.6673	-43.9307	57.726	78.9678	-47.035	83.6067	92.4014	-17.637	97.8149	112.931	0.301152	63.6662	124.948	8.53964	95.1603	92.7489	25.0729	78.8049	
4	0.0333333	72.2417	51.1814	94.0439	52.3928	55.3503	82.5162	35.8416	61.8428	59.4577	21.6604	66.7598	42.7721	42.3902	15.6085	37.3888	21.1009	5.08315	56.3746	45.4187	10.5362	80.78	51.5636	-0.166667	39.5681	32.4027	-9.3525	68.1296	53.5336	5.43488	89.8314	59.5017	-15.6924	48.7505	44.1268	-15.9412	78.243	68.7225	1.92873	92.9582	71.1676	-28.7938	57.0036	56.7836	-23.0508	85.7796	79.659	-3.58094	96.7952	107.357	5.49026	64.006	123.223	9.8499	91.1475	100.856	33.5081	76.9517	
5	0.0416667	84.7019	67.1589	87.4634	68.5487	76.3221	75.0678	56.5459	86.6795	55.5597	45.9214	95.5377	36.9179	48.5397	44.5634	31.8031	25.2503	34.6321	49.8092	46.4424	42.4591	76.1464	51.2422	20.9212	34.3871	27.6433	17.9549	58.4576	50.2341	28.1106	83.9968	49.6933	7.51929	44.6841	35.8716	7.10391	71.821	60.9535	20.5998	87.9867	55.9754	-9.46293	54.907	44.9963	-0.265846	78.6506	74.607	11.9683	96.8201	103.56	7.31028	60.1755	117.192	14.3398	87.3495	105.325	40.8811	69.7512	
6	0.05	105.635	70.7445	84.0557	96.3399	88.8591	69.4679	89.0445	102.135	44.717	82.4763	112.07	28.9195	69.818	56.7636	24.2071	42.8304	60.8972	39.7836	61.6979	53.0295	66.8242	65.0902	37.6535	26.8718	40.5327	41.4425	48.4839	64.0429	43.0203	76.5176	58.3662	18.562	37.8635	43.3364	26.0298	63.7461	69.6721	30.6918	83.4437	63.6683	5.76816	48.8338	49.8121	15.6346	75.3286	79.2995	21.8708	91.6471	112.472	12.3118	60.9009	123.618	15.8196	89.2657	119.966	43.3807	68.489	
7	0.0583333	136.062	63.9407	85.6174	131.393	79.7712	64.6037	131.327	91.8326	40.2566	131.361	102.377	20.0744	105.333	53.7128	17.0708	77.2344	60.3809	30.5623	91.9366	56.1233	60.6952	92.6557	33.2308	21.4063	69.8235	45.8316	39.305	92.4505	41.474	70.6089	81.8398	18.191	32.2641	66.2398	31.1414	55.0766	90.6414	34.6752	75.8394	83.8327	4.46468	43.5187	67.5604	21.7149	62.2064	92.5624	22.7958	88.0169	130.249	2.18146	58.8771	139.665	4.52051	94.0956	146.603	33.105	72.1267	
8	0.0666667	159.048	45.2717	82.5563	159.288	61.7955	64.2987	164.414	69.7987	41.4506	169.936	80.1388	21.6257	138.773	32.2977	15.7634	112.443	46.4882	21.0558	117.766	43.2717	52.847	126.176	13.9209	19.485	101.494	32.4888	33.4853	115.288	33.4629	62.1994	116.473	2.77394	29.3459	95.9233	21.2662	43.4774	117.867	21.8531	72.6923	107.618	-9.17556	41.1403	94.7847	13.4132	55.9821	111.314	12.1724	82.9046	150.502	-18.3529	67.8016	154.252	-12.8505	98.934	167.815	12.802	79.8752	
9	0.075	181.569	34.9775	90.4727	182.752	45.5176	65.1404	193.045	51.5938	43.6494	202.914	58.348	23.1078	173.158	7.89353	19.073	149.796	24.7256	14.4961	149.138	27.2722	50.3463	160.843	-4.52264	19.6143	134.33	12.7934	27.9492	143.377	19.0849	59.3153	148.174	-18.3975	31.4775	127.278	3.00414	38.2086	142.549	8.58475	68.9322	136.093	-29.5568	42.6857	121.821	-4.53153	51.4388	137.91	3.04365	78.2526	175.501	-27.4511	78.9158	172.765	-24.0658	106.951	190.848	-2.88878	90.4943	
10	0.0833333	196.93	26.8133	92.7853	203.074	39.6766	67.4853	213.943	46.3128	45.631	224.008	48.9362	26.0483	207.819	-0.556255	28.2845	178.09	11.1278	17.4709	170.139	12.6152	48.6795	193.217	-18.6459	27.0777	164.614	-7.15747	24.7786	166.393	4.58155	59.5876	178.877	-31.5369	33.9898	155.913	-13.5924	37.9585	165.307	-3.22555	69.3541	169.007	-43.498	47.1646	151.319	-20.4494	50.0836	163.039	-8.18052	80.5408	201.916	-32.7527	89.8842	195.223	-26.0895	119.001	209.584	-3.57573	98.9242	
11	0.0916667	199.126	34.1108	98.2213	203.624	40.7354	72.2965	217.501	52.3882	46.3988	226.884	60.243	27.3546	223.966	9.32224	30.7976	194.935	7.84856	19.7618	185.341	12.3902	51.8906	219.299	-10.9738	33.5714	185.765	-9.04834	26.8484	180.707	4.15989	60.2216	207.452	-29.5612	37.8421	178.76	-20.6969	39.7081	183.95	-5.90637	71.3577	199.984	-38.6554	48.1269	173.806	-25.7396	53.0274	179.602	-14.2147	82.3681	226.039	-27.2055	91.1114	213.432	-19.1735	121.401	224.694	9.16316	99.4089	
